<svg xmlns="http://www.w3.org/2000/svg" viewBox="0 0 437.87 63.47"><defs><style>.cls-1{fill:#fff;}</style></defs><title>Logo KD Baru</title><g id="Layer_2" data-name="Layer 2"><g id="Layer_1-2" data-name="Layer 1"><path class="cls-1" d="M250.76,4.66a52.14,52.14,0,0,0-7.9-.42s-.77,0-.77,1.06,0,15.39,0,15.39a1.93,1.93,0,0,1-2.19,2.14H230c-8.9,0-17.21,8.17-17.21,18.11,0,10.5,9.46,18.41,17.88,18.41h1.94a21.08,21.08,0,0,0,9.5-2.46,5.93,5.93,0,0,0,.31,1.05,1.3,1.3,0,0,0,1.25.85h8.44c.28,0,.42-.28.12-.83a5.08,5.08,0,0,1-.91-3.21c0-1.28,0-49.08,0-49.21A.8.8,0,0,0,250.76,4.66ZM232,51.42h-.87c-3.95,0-10-3.85-10-10.41,0-6,4.44-10.21,8.92-10.21H239a3.36,3.36,0,0,0,3.17-1.58V43C241.52,50.12,236.43,51.42,232,51.42Z"/><circle class="cls-1" cx="362.92" cy="56.31" r="2.38"/><path class="cls-1" d="M382.69,48.93v-.07a10.27,10.27,0,0,1,10.49-10.27,10.15,10.15,0,0,1,10.45,10.19v.07a10.29,10.29,0,0,1-10.53,10.23A10.16,10.16,0,0,1,382.69,48.93Zm16.44,0v-.07a6.07,6.07,0,0,0-6-6.32c-3.61,0-5.91,2.83-5.91,6.25v.07a6.11,6.11,0,0,0,6,6.32C396.86,55.18,399.13,52.32,399.13,48.93Z"/><path class="cls-1" d="M417.56,48.86v-.07c0-6.55,4.43-10.19,9.11-10.19a8.18,8.18,0,0,1,6.7,3.46V31.49h4.5V58.64h-4.5V55.37a7.91,7.91,0,0,1-6.7,3.68C422.06,59.05,417.56,55.41,417.56,48.86Zm15.88,0v-.07c0-3.79-2.68-6.29-5.69-6.29s-5.65,2.38-5.65,6.29v.07c0,3.79,2.57,6.29,5.65,6.29S433.44,52.62,433.44,48.86Z"/><circle class="cls-1" cx="406.27" cy="56.31" r="2.38"/><path class="cls-1" d="M410.73,39h4.5V58.64h-4.5Z"/><circle class="cls-1" cx="412.98" cy="33.83" r="2.38"/><path class="cls-1" d="M381,52.73a7.34,7.34,0,0,1-5.08,2.45c-3.46,0-5.88-2.86-5.88-6.32v-.07c0-3.42,2.38-6.25,5.65-6.25a6,6,0,0,1,4.88,2.21l.39.42a19.94,19.94,0,0,1,1.86-3.87,9.27,9.27,0,0,0-7.1-2.7,10.13,10.13,0,0,0-10.19,10.27v.07a10,10,0,0,0,10.15,10.15,9.77,9.77,0,0,0,7.22-2.84A10.1,10.1,0,0,1,381,52.73Z"/><path class="cls-1" d="M171.28,55.08a11.75,11.75,0,0,1-1.53-3.27c-.19-.66-.81-.87-1.5-.88h-4.63c-4.93,0-5.32-6-5.32-7.84V26.4h9.95a.74.74,0,0,0,.79-.66V19.16c0-.65-.53-.65-.53-.65H158.3V11.27c0-2,0-3.19,0-3.3a.55.55,0,0,0-.46-.63A35.28,35.28,0,0,0,151,6.52c-.23,0-.6.22-.6.94v11h-7.56a.37.37,0,0,0-.08.71,9.83,9.83,0,0,1,3.16,3c1.1,1.56,1.06,2.49,1.54,3.61a1,1,0,0,0,.83.59h2.12v8h0v8.7c0,9.41,5.31,15.74,13.22,15.74h4.44l5.19-.06c.48,0,.78-.36.39-.74A14.33,14.33,0,0,1,171.28,55.08Z"/><path class="cls-1" d="M109.37,15l-7.68,0a2.9,2.9,0,0,0-1.79.69L84.47,31s-.5.53-.84.53-.33-.41-.33-.84c0-14.37,0-23.55,0-24,0-1.19-.29-1.75-1-1.94a64.83,64.83,0,0,0-7.64-.71c-.21,0-.59.15-.59.77V57.81c0,.85.5.91.83.91h8.05c.33,0,.46-.15.46-.52,0-.07,0-6.69,0-12.55a2.44,2.44,0,0,1,.48-1.71l3.84-4.06a1.8,1.8,0,0,0,.39,1.7c3.32,4.15,8.41,13.68,10.5,16.34a2.23,2.23,0,0,0,1.69.79H110c.45,0,.28-.5.17-.64-3.08-4.15-12.05-18.56-14.25-21.45a6.38,6.38,0,0,1-1.23-2.56,2.36,2.36,0,0,1,.63-1.79C95.86,31.57,109.65,17,109.65,17a2,2,0,0,0,.69-1.22C110.34,15.23,110,15,109.37,15Z"/><path class="cls-1" d="M39.67,43.77c-.09,4.09-4.44,4.09-4.44,4.09H29.72l-8.84,8.32,1.64-8.32H18.76a4.16,4.16,0,0,1-4.35-3.67s0-22.69,0-25.7A3.44,3.44,0,0,1,17.88,15H35.51a4,4,0,0,1,4.16,3.75s.07,21.87,0,25.06M29.64,0H0V63.46H29.41s30,1.18,30.06-31.73C59.47-1.84,33.75,0,29.64,0"/><path class="cls-1" d="M290.45,31.39v-.15c0-10.14-8.31-12.27-15.28-12.27-4.23,0-11.55,1.4-14.27,5.9,0,0-.25.56.16.81s4.7,2.67,4.7,2.67a1.28,1.28,0,0,0,.33.1.4.4,0,0,0,.28-.11c.59-.66,2.62-2,8.72-2.06,7.13,0,7.46,2.81,7.46,5v.12c0,1.51-.28,1.86-1.64,1.86h-10.3c-8.2,0-14.15,4.91-14.15,12.79,0,6.2,5.84,13.29,15.13,13.29h.91a18.41,18.41,0,0,0,10.05-2.78c0,1.13.54,2.23,1.51,2.23h6.78c.69,0,.41-.48.41-.48a4.25,4.25,0,0,1-.8-2.91V32.16c0-.25,0-.5,0-.77Zm-8.07,12c0,6.39-3.83,8.78-9,8.78h-.62c-3.81,0-8.06-2.08-8.06-5.92,0-3.54,3.05-5.4,5.94-5.4H280c1.3,0,2-.32,2.41-.9C282.42,40.47,282.38,42.46,282.38,43.41Z"/><path class="cls-1" d="M207.7,31.39v-.15C207.7,21.1,199.39,19,192.42,19c-4.23,0-11.55,1.4-14.27,5.9,0,0-.25.56.16.81s4.7,2.67,4.7,2.67a1.28,1.28,0,0,0,.33.1.4.4,0,0,0,.28-.11c.59-.66,2.62-2,8.72-2.06,7.13,0,7.46,2.81,7.46,5v.12c0,1.51-.28,1.86-1.64,1.86h-10.3c-8.2,0-14.15,4.91-14.15,12.79,0,6.2,5.84,13.29,15.13,13.29h.91a18.41,18.41,0,0,0,10.05-2.78c0,1.13.54,2.23,1.51,2.23h6.78c.69,0,.41-.48.41-.48a4.25,4.25,0,0,1-.8-2.91V32.16c0-.25,0-.5,0-.77Zm-8.07,12c0,6.39-3.83,8.78-9,8.78H190c-3.81,0-8.06-2.08-8.06-5.92,0-3.54,3.05-5.4,5.94-5.4h9.4c1.3,0,2-.32,2.41-.9C199.67,40.47,199.63,42.46,199.63,43.41Z"/><path class="cls-1" d="M143.24,31.39v-.15C143.24,21.1,134.94,19,128,19c-4.23,0-11.55,1.4-14.27,5.9,0,0-.25.56.16.81s4.7,2.67,4.7,2.67a1.28,1.28,0,0,0,.33.1.4.4,0,0,0,.28-.11c.59-.66,2.62-2,8.72-2.06,7.13,0,7.46,2.81,7.46,5v.12c0,1.51-.28,1.86-1.64,1.86h-10.3c-8.2,0-14.15,4.91-14.15,12.79,0,6.2,5.84,13.29,15.13,13.29h.91a18.41,18.41,0,0,0,10.05-2.78c0,1.13.54,2.23,1.51,2.23h6.78c.69,0,.41-.48.41-.48a4.25,4.25,0,0,1-.8-2.91V32.16c0-.25,0-.5,0-.77Zm-8.07,12c0,6.39-3.83,8.78-9,8.78h-.62c-3.81,0-8.06-2.08-8.06-5.92,0-3.54,3.05-5.4,5.94-5.4h9.4c1.3,0,2-.32,2.41-.9C135.22,40.47,135.17,42.46,135.17,43.41Z"/><path class="cls-1" d="M355,31.39v-.15C355,21.1,346.69,19,339.72,19c-4.23,0-11.55,1.4-14.27,5.9,0,0-.25.56.16.81s4.7,2.67,4.7,2.67a1.28,1.28,0,0,0,.33.1.4.4,0,0,0,.28-.11c.59-.66,2.62-2,8.72-2.06,7.13,0,7.46,2.81,7.46,5v.12c0,1.51-.28,1.86-1.64,1.86h-10.3C327,33.23,321,38.14,321,46c0,6.2,5.84,13.29,15.13,13.29H337a18.41,18.41,0,0,0,10.05-2.78c0,1.13.54,2.23,1.51,2.23h6.78c.69,0,.41-.48.41-.48a4.25,4.25,0,0,1-.8-2.91V32.16c0-.25,0-.5,0-.77Zm-8.07,12c0,6.39-3.83,8.78-9,8.78h-.62c-3.81,0-8.06-2.08-8.06-5.92,0-3.54,3.05-5.4,5.94-5.4h9.4c1.3,0,2-.32,2.41-.9C347,40.47,346.92,42.46,346.92,43.41Z"/><path class="cls-1" d="M318.78,55.08a11.75,11.75,0,0,1-1.53-3.27c-.19-.66-.81-.87-1.5-.88h-4.63c-4.93,0-5.32-6-5.32-7.84V26.4h9.95a.74.74,0,0,0,.79-.66V19.16c0-.65-.53-.65-.53-.65H305.8V11.27c0-2,0-3.19,0-3.3a.55.55,0,0,0-.46-.63,35.28,35.28,0,0,0-6.85-.82c-.23,0-.6.22-.6.94v11h-7.56a.37.37,0,0,0-.08.71,9.83,9.83,0,0,1,3.16,3c1.1,1.56,1.06,2.49,1.54,3.61a1,1,0,0,0,.83.59h2.12v8h0v8.7c0,9.41,5.31,15.74,13.22,15.74h4.44l5.19-.06c.48,0,.78-.36.39-.74A14.33,14.33,0,0,1,318.78,55.08Z"/></g></g></svg>