<svg id="Layer_1" data-name="Layer 1" xmlns="http://www.w3.org/2000/svg" viewBox="0 0 22 22"><defs><style>.cls-1{fill:#fff;}</style></defs><title>icon-signin</title><path class="cls-1" d="M21.94,18.85a.86.86,0,0,0-1.68.35.9.9,0,0,1-.18.75.87.87,0,0,1-.69.33H2.61A.87.87,0,0,1,1.92,20a.9.9,0,0,1-.18-.75,9.49,9.49,0,0,1,9-7.52h.46a9.45,9.45,0,0,1,7.63,4.2.86.86,0,1,0,1.43-1,11.18,11.18,0,0,0-5.79-4.4,5.84,5.84,0,1,0-7,0A11.18,11.18,0,0,0,.06,18.85,2.61,2.61,0,0,0,2.61,22H19.39a2.61,2.61,0,0,0,2.55-3.15ZM6.87,5.84A4.12,4.12,0,1,1,11.21,10h-.42A4.13,4.13,0,0,1,6.87,5.84Z" transform="translate(0)"/></svg>