<?xml version="1.0" encoding="utf-8"?>
<!-- Generator: Adobe Illustrator 21.0.0, SVG Export Plug-In . SVG Version: 6.00 Build 0)  -->
<svg version="1.1" id="Layer_1" xmlns="http://www.w3.org/2000/svg" xmlns:xlink="http://www.w3.org/1999/xlink" x="0px" y="0px"
	 viewBox="0 0 64 64" style="enable-background:new 0 0 64 64;" xml:space="preserve">
<style type="text/css">
	.st0{fill:#FFFFFF;stroke:#FFFFFF;stroke-width:2;stroke-miterlimit:10;}
</style>
<g>
	<g id="Padlock">
		<g>
			<path class="st0" d="M47.3,28.2V16.7c0-8.4-6.9-15.3-15.3-15.3S16.7,8.3,16.7,16.7v11.5c-3.2,0-5.7,2.6-5.7,5.7v22.9
				c0,3.2,2.6,5.7,5.7,5.7h30.5c3.2,0,5.7-2.6,5.7-5.7V33.9C53,30.8,50.4,28.2,47.3,28.2z M20.5,16.7c0-6.3,5.1-11.5,11.5-11.5
				s11.5,5.1,11.5,11.5v11.5H20.5V16.7z M49.2,56.8c0,1.1-0.9,1.9-1.9,1.9H16.7c-1.1,0-1.9-0.9-1.9-1.9V33.9c0-1.1,0.9-1.9,1.9-1.9
				h30.5c1.1,0,1.9,0.9,1.9,1.9V56.8z M33.9,44v-4.3c0-1.1-0.9-1.9-1.9-1.9s-1.9,0.9-1.9,1.9V44c-1.1,0.7-1.9,1.9-1.9,3.3
				c0,2.1,1.7,3.8,3.8,3.8s3.8-1.7,3.8-3.8C35.8,45.9,35,44.6,33.9,44z"/>
		</g>
	</g>
</g>
</svg>
