<?xml version="1.0" encoding="utf-8"?>
<!-- Generator: Adobe Illustrator 21.0.0, SVG Export Plug-In . SVG Version: 6.00 Build 0)  -->
<svg version="1.1" id="Layer_1" xmlns="http://www.w3.org/2000/svg" xmlns:xlink="http://www.w3.org/1999/xlink" x="0px" y="0px"
	 viewBox="0 0 266.4 38.6" style="enable-background:new 0 0 266.4 38.6;" xml:space="preserve">
<style type="text/css">
	.st0{fill:#082556;}
	.st1{fill:#809A9C;}
</style>
<title>Logo KD Baru_Original</title>
<g id="Layer_2">
	<g id="Layer_1-2">
		<path class="st0" d="M152.5,2.8c-1.6-0.2-3.2-0.3-4.8-0.3c0,0-0.5,0-0.5,0.6s0,9.4,0,9.4c0.1,0.6-0.4,1.2-1,1.3
			c-0.1,0-0.2,0-0.3,0h-6c-5.4,0-10.5,5-10.5,11c0,6.4,5.8,11.2,10.9,11.2h1.2c2,0,4-0.5,5.8-1.5c0,0.2,0.1,0.4,0.2,0.6
			c0.1,0.3,0.4,0.5,0.8,0.5h5.1c0.2,0,0.3-0.2,0.1-0.5c-0.4-0.6-0.6-1.3-0.6-2c0-0.8,0-29.9,0-29.9C152.9,3.1,152.8,2.9,152.5,2.8z
			 M141.1,31.3h-0.5c-2.4,0-6.1-2.3-6.1-6.3c0-3.6,2.7-6.2,5.4-6.2h5.4c0.8,0.1,1.5-0.3,1.9-1v8.4C146.9,30.5,143.8,31.3,141.1,31.3
			z"/>
		<circle class="st1" cx="220.8" cy="34.3" r="1.4"/>
		<path class="st1" d="M232.8,29.8L232.8,29.8c0-3.5,2.8-6.3,6.2-6.3c0,0,0.1,0,0.1,0c3.4-0.1,6.3,2.6,6.4,6c0,0.1,0,0.1,0,0.2v0
			c0,3.5-2.8,6.2-6.3,6.2c0,0-0.1,0-0.1,0c-3.4,0.1-6.2-2.6-6.3-6C232.8,29.9,232.8,29.8,232.8,29.8z M242.8,29.8L242.8,29.8
			c0.1-2.1-1.5-3.8-3.5-3.9c0,0-0.1,0-0.1,0c-2.2,0-3.6,1.7-3.6,3.8v0c-0.1,2.1,1.5,3.8,3.6,3.8c0,0,0,0,0.1,0
			C241.4,33.6,242.8,31.8,242.8,29.8z"/>
		<path class="st1" d="M254,29.7L254,29.7c0-4,2.7-6.2,5.5-6.2c1.6,0,3.1,0.8,4.1,2.1v-6.4h2.7v16.5h-2.7v-2
			c-0.9,1.4-2.4,2.2-4.1,2.2C256.7,35.9,254,33.7,254,29.7z M263.7,29.7L263.7,29.7c0-2.3-1.6-3.9-3.5-3.9c-1.8,0-3.4,1.4-3.4,3.8v0
			c0,2.3,1.6,3.8,3.4,3.8C262.1,33.6,263.7,32,263.7,29.7z"/>
		<circle class="st1" cx="247.1" cy="34.3" r="1.4"/>
		<path class="st1" d="M249.9,23.7h2.7v11.9h-2.7V23.7z"/>
		<circle class="st1" cx="251.2" cy="20.6" r="1.4"/>
		<path class="st1" d="M231.8,32.1c-0.8,0.9-1.9,1.4-3.1,1.5c-2.1,0-3.6-1.7-3.6-3.8v0c0-2.1,1.4-3.8,3.4-3.8c1.1,0,2.2,0.5,3,1.3
			l0.2,0.3c0.3-0.8,0.7-1.6,1.1-2.4c-1.1-1.1-2.7-1.7-4.3-1.6c-3.4,0-6.2,2.7-6.2,6.1c0,0,0,0.1,0,0.1v0c-0.1,3.4,2.6,6.1,6,6.2
			c0.1,0,0.1,0,0.2,0c1.6,0.1,3.2-0.6,4.4-1.7C232.4,33.6,232,32.9,231.8,32.1z"/>
		<path class="st0" d="M104.2,33.5c-0.4-0.6-0.7-1.3-0.9-2c-0.1-0.4-0.5-0.5-0.9-0.5h-2.8c-3,0-3.2-3.6-3.2-4.8V16.1h6.1
			c0.2,0,0.5-0.2,0.5-0.4v-4c0-0.4-0.3-0.4-0.3-0.4h-6.2V6.9c0-1.2,0-1.9,0-2c0-0.2-0.1-0.4-0.3-0.4c0,0,0,0,0,0
			C94.6,4.2,93.3,4,91.9,4c-0.1,0-0.4,0.1-0.4,0.6v6.7h-4.6c-0.1,0-0.2,0.1-0.2,0.3c0,0.1,0.1,0.1,0.1,0.2c0.8,0.5,1.4,1.1,1.9,1.8
			c0.7,0.9,0.6,1.5,0.9,2.2c0.1,0.2,0.3,0.3,0.5,0.4h1.3v4.9l0,0v5.3c0,5.7,3.2,9.6,8,9.6h2.7l3.2,0c0.3,0,0.5-0.2,0.2-0.5
			C105.1,34.8,104.6,34.2,104.2,33.5z"/>
		<path class="st0" d="M66.5,9.1h-4.7c-0.4,0-0.8,0.2-1.1,0.4l-9.4,9.3c0,0-0.3,0.3-0.5,0.3c-0.2,0-0.2-0.2-0.2-0.5
			c0-8.7,0-14.3,0-14.6c0-0.7-0.2-1.1-0.6-1.2c-1.5-0.2-3.1-0.4-4.6-0.4c-0.1,0-0.4,0.1-0.4,0.5v32.2c0,0.5,0.3,0.6,0.5,0.6h4.9
			c0.2,0,0.3-0.1,0.3-0.3c0,0,0-4.1,0-7.6c0-0.4,0.1-0.7,0.3-1l2.3-2.5c-0.1,0.4,0,0.8,0.2,1c2,2.5,5.1,8.3,6.4,9.9
			c0.3,0.3,0.6,0.5,1,0.5h5.9c0.3,0,0.2-0.3,0.1-0.4c-1.9-2.5-7.3-11.3-8.7-13c-0.4-0.5-0.6-1-0.7-1.6c0-0.4,0.1-0.8,0.4-1.1
			c0.3-0.4,8.7-9.3,8.7-9.3c0.2-0.2,0.4-0.5,0.4-0.7C67.1,9.3,66.9,9.1,66.5,9.1z"/>
		<path class="st0" d="M24.1,26.6c-0.1,2.5-2.7,2.5-2.7,2.5h-3.4l-5.4,5.1l1-5.1h-2.3c-1.3,0.1-2.5-0.9-2.6-2.2c0,0,0-13.8,0-15.6
			c0-1.2,0.9-2.1,2.1-2.1c0,0,0,0,0,0h10.7c1.3-0.1,2.4,1,2.5,2.3C24.1,11.4,24.2,24.7,24.1,26.6 M18,0H0v38.6h17.9
			c0,0,18.2,0.7,18.3-19.3C36.2-1.1,20.5,0,18,0"/>
		<path class="st0" d="M176.7,19.1L176.7,19.1c0-6.3-5.1-7.6-9.3-7.6c-2.6,0-7,0.9-8.7,3.6c0,0-0.2,0.3,0.1,0.5
			c0.2,0.2,2.9,1.6,2.9,1.6c0.1,0,0.1,0,0.2,0.1c0.1,0,0.1,0,0.2-0.1c0.4-0.4,1.6-1.2,5.3-1.3c4.3,0,4.5,1.7,4.5,3v0.1
			c0,0.9-0.2,1.1-1,1.1h-6.3c-5,0-8.6,3-8.6,7.8c0,3.8,3.6,8.1,9.2,8.1h0.6c2.2,0,4.3-0.6,6.1-1.7c0,0.7,0.3,1.4,0.9,1.4h4.1
			c0.4,0,0.2-0.3,0.2-0.3c-0.4-0.5-0.5-1.1-0.5-1.8V19.6C176.7,19.4,176.7,19.3,176.7,19.1L176.7,19.1z M171.8,26.4
			c0,3.9-2.3,5.3-5.5,5.3h-0.4c-2.3,0-4.9-1.3-4.9-3.6c0-2.2,1.9-3.3,3.6-3.3h5.7c0.8,0,1.2-0.2,1.5-0.5
			C171.8,24.6,171.8,25.8,171.8,26.4L171.8,26.4z"/>
		<path class="st0" d="M126.3,19.1L126.3,19.1c0-6.3-5.1-7.5-9.3-7.5c-2.6,0-7,0.9-8.7,3.6c0,0-0.2,0.3,0.1,0.5s2.9,1.6,2.9,1.6
			c0.1,0,0.1,0,0.2,0.1c0.1,0,0.1,0,0.2-0.1c0.4-0.4,1.6-1.2,5.3-1.3c4.3,0,4.5,1.7,4.5,3v0.1c0,0.9-0.2,1.1-1,1.1h-6.3
			c-5,0-8.6,3-8.6,7.8c0,3.8,3.6,8.1,9.2,8.1h0.6c2.2,0,4.3-0.6,6.1-1.7c0,0.7,0.3,1.4,0.9,1.4h4.1c0.4,0,0.2-0.3,0.2-0.3
			c-0.4-0.5-0.5-1.1-0.5-1.8V19.6C126.3,19.4,126.3,19.3,126.3,19.1L126.3,19.1z M121.4,26.4c0,3.9-2.3,5.3-5.5,5.3h-0.4
			c-2.3,0-4.9-1.3-4.9-3.6c0-2.2,1.9-3.3,3.6-3.3h5.7c0.8,0,1.2-0.2,1.5-0.5C121.5,24.6,121.4,25.8,121.4,26.4L121.4,26.4z"/>
		<path class="st0" d="M87.1,19.1L87.1,19.1c0-6.3-5-7.5-9.3-7.5c-2.6,0-7,0.9-8.7,3.6c0,0-0.2,0.3,0.1,0.5s2.9,1.6,2.9,1.6
			c0.1,0,0.1,0,0.2,0.1c0.1,0,0.1,0,0.2-0.1c0.4-0.4,1.6-1.2,5.3-1.3c4.3,0,4.5,1.7,4.5,3v0.1c0,0.9-0.2,1.1-1,1.1h-6.3
			c-5,0-8.6,3-8.6,7.8c0,3.8,3.6,8.1,9.2,8.1h0.6c2.2,0,4.3-0.6,6.1-1.7c0,0.7,0.3,1.4,0.9,1.4h4.1c0.4,0,0.2-0.3,0.2-0.3
			c-0.4-0.5-0.5-1.1-0.5-1.8V19.6C87.2,19.4,87.2,19.3,87.1,19.1L87.1,19.1z M82.2,26.4c0,3.9-2.3,5.3-5.5,5.3h-0.4
			c-2.3,0-4.9-1.3-4.9-3.6c0-2.2,1.9-3.3,3.6-3.3h5.7c0.8,0,1.2-0.2,1.5-0.5C82.3,24.6,82.2,25.8,82.2,26.4L82.2,26.4z"/>
		<path class="st0" d="M216,19.1L216,19.1c0-6.3-5.1-7.5-9.3-7.5c-2.6,0-7,0.9-8.7,3.6c0,0-0.2,0.3,0.1,0.5c0.2,0.2,2.9,1.6,2.9,1.6
			c0.1,0,0.1,0,0.2,0.1c0.1,0,0.1,0,0.2-0.1c0.4-0.4,1.6-1.2,5.3-1.3c4.3,0,4.5,1.7,4.5,3v0.1c0,0.9-0.2,1.1-1,1.1h-6.3
			c-5,0-8.6,3-8.6,7.7c0,3.8,3.6,8.1,9.2,8.1h0.5c2.2,0,4.3-0.6,6.1-1.7c0,0.7,0.3,1.4,0.9,1.4h4.1c0.4,0,0.2-0.3,0.2-0.3
			c-0.4-0.5-0.5-1.1-0.5-1.8V19.6C215.9,19.4,215.9,19.3,216,19.1L216,19.1z M211,26.4c0,3.9-2.3,5.3-5.5,5.3h-0.4
			c-2.3,0-4.9-1.3-4.9-3.6c0-2.2,1.9-3.3,3.6-3.3h5.7c0.8,0,1.2-0.2,1.5-0.5C211.1,24.6,211,25.8,211,26.4L211,26.4z"/>
		<path class="st0" d="M193.9,33.5c-0.4-0.6-0.7-1.3-0.9-2c-0.1-0.4-0.5-0.5-0.9-0.5h-2.8c-3,0-3.2-3.6-3.2-4.8V16.1h6.1
			c0.2,0,0.5-0.2,0.5-0.4v-4c0-0.4-0.3-0.4-0.3-0.4H186V6.9c0-1.2,0-1.9,0-2c0-0.2-0.1-0.4-0.3-0.4c0,0,0,0,0,0
			C184.4,4.2,183,4,181.6,4c-0.1,0-0.4,0.1-0.4,0.6v6.7h-4.6c-0.1,0-0.2,0.1-0.2,0.3c0,0.1,0.1,0.1,0.1,0.2c0.8,0.5,1.4,1.1,1.9,1.8
			c0.7,0.9,0.6,1.5,0.9,2.2c0.1,0.2,0.3,0.3,0.5,0.4h1.3v4.9l0,0v5.3c0,5.7,3.2,9.6,8,9.6h2.7l3.2,0c0.3,0,0.5-0.2,0.2-0.5
			C194.8,34.8,194.3,34.2,193.9,33.5z"/>
	</g>
</g>
</svg>
