<?xml version="1.0" encoding="utf-8"?>
<!-- Generator: Adobe Illustrator 21.0.0, SVG Export Plug-In . SVG Version: 6.00 Build 0)  -->
<svg version="1.1" id="Layer_1" xmlns="http://www.w3.org/2000/svg" xmlns:xlink="http://www.w3.org/1999/xlink" x="0px" y="0px"
	 viewBox="0 0 64 64" style="enable-background:new 0 0 64 64;" xml:space="preserve">
<style type="text/css">
	.st0{fill:#FFFFFF;stroke:#FFFFFF;stroke-width:2;stroke-miterlimit:10;}
</style>
<g>
	<g id="Magnifying_x5F_Glass">
		<g>
			<path class="st0" d="M2,23.6c0,11.9,9.7,21.5,21.6,21.5c3.9,0,7.6-1.1,10.7-2.9l18.1,18.1c1.1,1.1,2.5,1.6,4,1.6
				c1.4,0,2.9-0.5,4-1.6c2.2-2.2,2.2-5.8,0-7.9L42.2,34.3c1.8-3.2,2.9-6.8,2.9-10.7C45.1,11.7,35.5,2,23.6,2C11.7,2,2,11.7,2,23.6z
				 M37.4,40.1c1-0.8,1.8-1.7,2.7-2.7L57.7,55c0.5,0.5,0.5,1,0.5,1.3s-0.1,0.8-0.5,1.3c-0.5,0.5-1,0.5-1.3,0.5
				c-0.3,0-0.8-0.1-1.3-0.5L37.4,40.1z M5.8,23.6c0-9.8,8-17.8,17.8-17.8c9.8,0,17.8,8,17.8,17.8s-8,17.8-17.8,17.8
				C13.7,41.4,5.8,33.4,5.8,23.6z M13.7,33.7c0.4,0.4,0.8,0.5,1.3,0.5s1-0.2,1.3-0.5c0.7-0.7,0.7-1.9,0-2.6
				c-4.1-4.1-4.1-10.8,0-14.9c0.7-0.7,0.7-1.9,0-2.6c-0.7-0.7-1.9-0.7-2.7,0C8.1,19,8.1,28.1,13.7,33.7z"/>
		</g>
	</g>
</g>
</svg>
